<?xml version="1.0" standalone="no"?>
<!DOCTYPE svg PUBLIC "-//W3C//DTD SVG 20010904//EN"
 "http://www.w3.org/TR/2001/REC-SVG-20010904/DTD/svg10.dtd">
<svg version="1.0" xmlns="http://www.w3.org/2000/svg"
 width="1236.000000pt" height="1236.000000pt" viewBox="0 0 1236.000000 1236.000000"
 preserveAspectRatio="xMidYMid meet">
<metadata>
Created by potrace 1.14, written by Peter Selinger 2001-2017
</metadata>
<g transform="translate(0.000000,1236.000000) scale(0.100000,-0.100000)"
fill="#000000" stroke="none">
<path d="M4210 12058 c-96 -34 -149 -69 -236 -156 -70 -70 -129 -114 -215
-162 -30 -16 -87 -68 -132 -119 -58 -66 -106 -161 -124 -245 -9 -44 -9 -183 0
-234 l7 -43 -31 18 c-17 10 -63 54 -101 97 -128 145 -210 191 -352 200 -257
17 -486 -197 -487 -455 -1 -60 -2 -63 -47 -105 -34 -32 -53 -42 -67 -38 -181
52 -316 40 -455 -42 -90 -53 -169 -138 -225 -243 -26 -48 -39 -60 -91 -87 -34
-17 -74 -36 -90 -43 -79 -33 -165 -109 -211 -189 -50 -88 -127 -207 -158 -247
-52 -65 -83 -126 -101 -195 -16 -64 -22 -180 -10 -217 5 -16 -1 -22 -33 -31
-94 -29 -145 -15 -270 73 -135 95 -295 104 -441 23 -91 -51 -182 -158 -211
-250 -6 -18 -13 -98 -15 -178 -4 -180 -9 -243 -22 -300 -6 -25 -13 -57 -16
-72 -2 -15 -8 -33 -12 -39 -3 -6 -8 -43 -9 -82 -4 -118 37 -224 117 -307 73
-75 117 -99 239 -131 140 -36 198 -65 288 -141 76 -64 89 -87 72 -124 -6 -13
-16 -35 -23 -49 -18 -40 -77 -104 -110 -121 -79 -41 -187 -188 -204 -281 -12
-58 -9 -159 4 -196 13 -33 12 -45 -8 -119 -15 -56 -21 -106 -20 -157 1 -42 1
-147 1 -234 -1 -111 3 -173 13 -207 30 -101 128 -216 230 -270 25 -14 46 -30
46 -35 0 -6 8 -27 19 -48 10 -20 22 -58 25 -84 16 -111 67 -223 143 -308 36
-41 37 -44 39 -126 1 -56 8 -101 21 -134 16 -41 17 -57 8 -90 -28 -109 -81
-164 -221 -232 -203 -98 -327 -276 -338 -484 -5 -88 5 -150 40 -242 20 -51 27
-92 30 -159 6 -164 56 -280 170 -393 39 -39 87 -79 106 -88 30 -14 40 -27 54
-70 9 -28 31 -74 49 -102 218 -337 663 -357 914 -42 l30 38 13 -43 c19 -67 58
-128 112 -180 27 -27 52 -48 57 -48 4 0 -5 -28 -21 -62 -16 -35 -32 -78 -35
-96 -6 -38 -34 -111 -49 -131 -5 -7 -11 -18 -12 -25 -8 -48 -71 -212 -100
-261 -97 -158 -117 -212 -123 -320 -2 -27 -9 -33 -79 -65 -63 -29 -93 -52
-174 -132 -54 -54 -110 -103 -125 -111 -16 -8 -73 -24 -128 -37 -140 -31 -187
-60 -296 -178 -26 -29 -56 -85 -74 -141 -14 -42 -16 -74 -12 -145 5 -97 20
-143 69 -215 77 -111 174 -169 334 -200 124 -24 163 -43 234 -116 162 -168
296 -217 515 -190 66 8 147 8 185 0 51 -11 158 -13 211 -3 30 5 109 36 176 68
189 90 253 96 434 39 172 -54 313 -48 449 20 51 26 95 31 111 13 20 -21 54
-93 64 -137 6 -28 10 -106 8 -180 -2 -114 0 -140 22 -210 37 -121 116 -226
230 -305 57 -38 100 -57 175 -75 191 -44 368 11 516 160 50 50 124 167 124
196 1 36 17 41 45 15 32 -30 116 -72 166 -83 19 -4 75 -7 124 -7 84 1 96 4
183 43 151 69 229 64 359 -22 138 -90 187 -105 343 -100 133 3 194 -8 270 -51
158 -88 212 -105 335 -106 59 0 107 -8 185 -31 187 -55 341 -37 474 55 84 59
98 66 131 66 17 0 49 9 73 20 59 27 191 122 191 138 1 7 5 11 9 8 10 -6 72 57
72 72 0 5 7 16 16 23 10 8 36 54 59 104 23 49 63 115 89 145 69 81 100 131
137 223 53 133 90 174 219 241 75 39 180 123 180 144 0 5 7 15 15 22 28 23 56
121 59 205 5 123 16 142 61 112 81 -54 257 -64 352 -20 32 15 33 15 79 -31 58
-58 118 -94 191 -113 71 -18 137 -13 268 22 88 23 110 26 190 19 171 -13 210
-9 300 26 55 21 130 89 180 165 58 86 69 240 25 345 -19 44 -69 119 -100 150
-17 17 -49 71 -62 105 -16 39 -22 76 -33 178 -19 183 -87 291 -268 427 -77 58
-137 138 -137 184 0 8 24 25 53 40 104 52 183 148 211 258 29 118 5 230 -71
324 l-34 42 37 33 c75 68 100 95 133 141 74 104 173 102 346 -5 43 -27 94 -56
111 -63 93 -39 227 -35 317 9 54 27 139 96 131 108 -3 5 1 9 8 9 7 0 23 16 36
35 12 19 31 36 42 36 27 2 29 3 74 22 21 9 41 17 44 17 7 0 98 66 134 98 72
63 146 189 163 277 13 71 15 159 4 213 -6 30 -12 75 -14 100 -3 62 -19 118
-61 213 -54 123 -51 237 9 282 46 34 90 46 185 48 50 1 112 10 153 22 69 20
70 20 97 0 46 -33 132 -56 222 -59 142 -5 237 33 341 137 125 124 166 273 124
444 -4 17 -33 75 -65 130 -70 119 -77 147 -79 289 0 60 -6 127 -12 150 -24 90
-114 210 -205 274 -19 13 -38 39 -49 69 -34 92 -121 196 -187 224 -32 13 -43
62 -35 151 14 161 122 285 295 342 161 54 321 243 357 424 14 70 7 186 -16
262 -39 130 -34 359 10 414 4 6 18 42 31 80 22 66 29 170 17 250 -2 16 1 48 8
70 7 23 11 66 9 96 -19 299 -292 521 -584 474 -89 -14 -172 -49 -220 -94 -19
-17 -44 -39 -55 -48 -49 -40 -98 -117 -135 -207 -47 -119 -83 -159 -160 -182
-69 -20 -96 -20 -197 1 -45 9 -128 18 -185 20 -135 5 -175 12 -281 48 -189 64
-342 33 -470 -95 l-59 -59 -26 24 c-14 12 -39 36 -56 51 -42 39 -161 95 -226
107 -30 5 -66 11 -80 14 -60 10 -91 20 -180 59 -89 40 -101 42 -190 42 -52 0
-109 -4 -126 -8 l-31 -8 -6 60 c-8 75 -37 158 -79 229 -28 46 -56 76 -156 173
-19 18 -78 50 -137 75 -80 33 -198 46 -293 31 -29 -5 -123 31 -168 63 -28 20
-72 88 -85 131 -5 19 -12 81 -13 139 -7 209 -40 270 -232 438 -130 113 -161
184 -168 382 -5 146 -18 214 -57 291 -86 172 -254 305 -424 336 -45 8 -186 9
-225 1 -171 -34 -333 -155 -416 -313 l-38 -72 -46 23 c-161 81 -345 48 -485
-88 -22 -21 -43 -38 -46 -38 -4 0 -7 17 -8 38 0 20 -3 48 -6 62 -14 72 -18 86
-24 95 -4 6 -14 26 -21 45 -36 91 -162 220 -264 270 -168 83 -364 74 -525 -25
-67 -40 -160 -130 -187 -180 -10 -19 -21 -35 -24 -35 -3 0 -6 16 -8 35 -4 65
-98 255 -125 255 -5 0 -20 14 -34 30 -68 82 -181 130 -318 136 -86 4 -109 2
-165 -18z"/>
</g>
</svg>
